<svg xmlns="http://www.w3.org/2000/svg" viewBox="0 0 160 48" fill="none">
  <!-- Krone V3: Rund, weich, modern-royal -->
  <g transform="translate(5,4)">
    <rect x="0" y="0" width="38" height="38" rx="19" fill="#C9A87C" opacity="0.08"/>
    <path d="M8 33V20l4 6 3-10 3 10 3-10 3 10 3-10 3 6v13H8Z" fill="#C9A87C" opacity="0.20"/>
    <path d="M8 33V20l4 6 3-10 3 10 3-10 3 10 3-10 3 6" fill="none" stroke="#C9A87C" stroke-width="1.8" stroke-linejoin="round" stroke-linecap="round"/>
    <path d="M8 33h22" stroke="#C9A87C" stroke-width="1.8" stroke-linecap="round"/>
    <circle cx="11" cy="20" r="2" fill="#C9A87C"/>
    <circle cx="16" cy="10" r="2" fill="#C9A87C"/>
    <circle cx="22" cy="10" r="2" fill="#C9A87C"/>
    <circle cx="27" cy="20" r="2" fill="#C9A87C"/>
  </g>
  <text x="54" y="28" font-family="Georgia,serif" font-weight="700" font-size="22" fill="#2C3E2D" letter-spacing="-0.5">Büroassist</text>
  <text x="54" y="42" font-family="-apple-system,system-ui,sans-serif" font-weight="400" font-size="10" fill="#C9A87C" letter-spacing="3">PERSÖNLICHE BÜROHILFE</text>
</svg>
