<svg xmlns="http://www.w3.org/2000/svg" viewBox="0 0 160 48" fill="none">
  <!-- Icon: B mit Blatt-Motiv -->
  <rect x="4" y="4" width="40" height="40" rx="12" fill="#2C3E2D"/>
  <path d="M20 32V16h8c3.3 0 6 2.2 6 5.2 0 2.6-1.8 4.4-4 4.8v.1c2.8.3 4.8 2.2 4.8 5 0 3.2-2.7 5.9-6.5 5.9H20Zm4-9.5h4.5c1.6 0 2.5-.9 2.5-2.3s-.9-2.3-2.5-2.3H24v4.6Zm0 7.2h5c1.8 0 3-1.1 3-2.7s-1.2-2.7-3-2.7h-5v5.4Z" fill="#F8F5F0"/>
  <circle cx="44" cy="14" r="3" fill="#C9A87C"/>
  <!-- Text -->
  <text x="56" y="30" font-family="Georgia,serif" font-weight="700" font-size="22" fill="#2C3E2D" letter-spacing="-0.5">Büro</text>
  <text x="56" y="44" font-family="-apple-system,system-ui,sans-serif" font-weight="400" font-size="11" fill="#5C6B5E" letter-spacing="2">ASSIST</text>
</svg>
